<?xml version="1.0" encoding="UTF-8" standalone="no"?>
<!DOCTYPE svg PUBLIC "-//W3C//DTD SVG 1.1//EN" "http://www.w3.org/Graphics/SVG/1.1/DTD/svg11.dtd">
<!-- Generated by Microsoft Visio, SVG Export ArduinoConnectorImx6ulevkb.svg Page-1 -->
<svg xmlns="http://www.w3.org/2000/svg" xmlns:xlink="http://www.w3.org/1999/xlink" xmlns:ev="http://www.w3.org/2001/xml-events"
		xmlns:v="http://schemas.microsoft.com/visio/2003/SVGExtensions/" width="6.62722in" height="5.21985in"
		viewBox="0 0 477.16 375.829" xml:space="preserve" color-interpolation-filters="sRGB" class="st15">
	<v:documentProperties v:langID="1033" v:viewMarkup="false">
		<v:userDefs>
			<v:ud v:nameU="msvConvertTheme"/>
		</v:userDefs>
	</v:documentProperties>

	<style type="text/css">
	<![CDATA[
		.st1 {fill:#92d050;stroke:#000000;stroke-linecap:round;stroke-linejoin:round;stroke-width:0.24}
		.st2 {fill:#00b0f0;stroke:#000000;stroke-linecap:round;stroke-linejoin:round;stroke-width:0.24}
		.st3 {fill:#000000;font-family:Arial;font-size:0.666664em}
		.st4 {fill:#ffffff;stroke:#000000;stroke-linecap:round;stroke-linejoin:round;stroke-width:0.24}
		.st5 {fill:none;stroke:none;stroke-linecap:round;stroke-linejoin:round;stroke-width:0.72}
		.st6 {fill:#000000;font-family:Arial;font-size:0.499992em}
		.st7 {fill:#eaeff5;stroke:#000000;stroke-linecap:round;stroke-linejoin:round;stroke-width:0.24}
		.st8 {fill:#000000;font-family:Arial;font-size:0.833336em}
		.st9 {fill:#000000;stroke:#000000;stroke-linecap:round;stroke-linejoin:round;stroke-width:0.24}
		.st10 {stroke:#ffc000;stroke-linecap:round;stroke-linejoin:round;stroke-width:1.5}
		.st11 {stroke:#00b050;stroke-linecap:round;stroke-linejoin:round;stroke-width:1.5}
		.st12 {stroke:#ff0000;stroke-linecap:round;stroke-linejoin:round;stroke-width:1.5}
		.st13 {stroke:#000000;stroke-linecap:round;stroke-linejoin:round;stroke-width:1.5}
		.st14 {fill:#000000;font-family:Arial;font-size:0.666664em;font-weight:bold}
		.st15 {fill:none;fill-rule:evenodd;font-size:12px;overflow:visible;stroke-linecap:square;stroke-miterlimit:3}
	]]>
	</style>

	<g v:mID="0" v:index="1" v:groupContext="foregroundPage">
		<title>Page-1</title>
		<v:pageProperties v:drawingScale="0.0393701" v:pageScale="0.0393701" v:drawingUnits="24" v:shadowOffsetX="8.50394"
				v:shadowOffsetY="-8.50394"/>
		<g id="group246-1" transform="translate(326.104,-35.5525)" v:mID="246" v:groupContext="group">
			<title>Sheet.246</title>
			<g id="shape239-2" v:mID="239" v:groupContext="shape" transform="translate(9.03103,5.68434E-014)">
				<title>Rectangle</title>
				<v:userDefs>
					<v:ud v:nameU="visVersion" v:val="VT0(15):26"/>
				</v:userDefs>
				<rect x="0" y="304.963" width="120.113" height="70.8661" class="st1"/>
			</g>
			<g id="shape169-4" v:mID="169" v:groupContext="shape" transform="translate(42.4458,-17.0604)">
				<title>Rounded Rectangle.169</title>
				<desc>A71CH</desc>
				<v:userDefs>
					<v:ud v:nameU="CTypeTopLeftSnip" v:prompt="" v:val="VT0(0):5"/>
					<v:ud v:nameU="CTypeTopRightSnip" v:prompt="" v:val="VT0(0):5"/>
					<v:ud v:nameU="CTypeBotLeftSnip" v:prompt="" v:val="VT0(0):5"/>
					<v:ud v:nameU="CTypeBotRightSnip" v:prompt="" v:val="VT0(0):5"/>
					<v:ud v:nameU="CornerLockHoriz" v:prompt="" v:val="VT0(1):5"/>
					<v:ud v:nameU="CornerLockVert" v:prompt="" v:val="VT0(1):5"/>
					<v:ud v:nameU="CornerLockDiag" v:prompt="" v:val="VT0(0):5"/>
					<v:ud v:nameU="TopLeftOffset" v:prompt="" v:val="VT0(0.15748031496063):24"/>
					<v:ud v:nameU="TopRightOffset" v:prompt="" v:val="VT0(0.15748031496063):24"/>
					<v:ud v:nameU="BotLeftOffset" v:prompt="" v:val="VT0(0.15748031496063):24"/>
					<v:ud v:nameU="BotRightOffset" v:prompt="" v:val="VT0(0.15748031496063):24"/>
					<v:ud v:nameU="visVersion" v:prompt="" v:val="VT0(15):26"/>
					<v:ud v:nameU="TopLeftOffset" v:prompt="" v:val="VT0(0.069739629460557):1"/>
					<v:ud v:nameU="TopRightOffset" v:prompt="" v:val="VT0(0.069739629460557):1"/>
					<v:ud v:nameU="BotLeftOffset" v:prompt="" v:val="VT0(0.069739629460557):1"/>
					<v:ud v:nameU="BotRightOffset" v:prompt="" v:val="VT0(0.069739629460557):1"/>
				</v:userDefs>
				<v:textBlock v:margins="rect(4,4,4,4)" v:tabSpace="42.5197"/>
				<v:textRect cx="25.1063" cy="356.144" width="50.22" height="39.3701"/>
				<path d="M5.02 375.83 L45.19 375.83 A5.02117 5.02117 -180 0 0 50.21 370.81 L50.21 341.48 A5.02117 5.02117 -180 0
							 0 45.19 336.46 L5.02 336.46 A5.02117 5.02117 -180 0 0 0 341.48 L0 370.81 A5.02117 5.02117 -180 0 0 5.02
							 375.83 Z" class="st2"/>
				<text x="12.21" y="358.54" class="st3" v:langID="1033"><v:paragraph v:horizAlign="1"/><v:tabList/>A71CH</text>			</g>
			<g id="group244-7" transform="translate(7.99361E-015,-5.94005)" v:mID="244" v:groupContext="group">
				<title>Sheet.244</title>
				<g id="shape241-8" v:mID="241" v:groupContext="shape" transform="translate(12.0113,-9.66984)">
					<title>Rectangle.241</title>
					<v:userDefs>
						<v:ud v:nameU="visVersion" v:val="VT0(15):26"/>
					</v:userDefs>
					<rect x="0" y="339.084" width="12.0113" height="36.7454" class="st4"/>
				</g>
				<g id="shape242-10" v:mID="242" v:groupContext="shape">
					<title>Sheet.242</title>
					<desc>I2C</desc>
					<v:textBlock v:margins="rect(4,4,4,4)" v:tabSpace="42.5197"/>
					<v:textRect cx="20.5908" cy="349.583" width="41.19" height="52.4934" transform="rotate(-90)"/>
					<rect x="0" y="323.336" width="41.1815" height="52.4934" class="st5"/>
					<text x="-354.25" y="22.39" transform="rotate(-90)" class="st6" v:langID="1033"><v:paragraph v:horizAlign="1"/><v:tabList/>I2C</text>				</g>
			</g>
			<g id="group245-13" transform="translate(104.218,-5.94005)" v:mID="245" v:groupContext="group">
				<title>Sheet.245</title>
				<g id="shape240-14" v:mID="240" v:groupContext="shape" transform="translate(15.7519,-3.94806)">
					<title>Rectangle.240</title>
					<v:userDefs>
						<v:ud v:nameU="visVersion" v:val="VT0(15):26"/>
					</v:userDefs>
					<rect x="0" y="322.991" width="12.0113" height="52.8388" class="st4"/>
				</g>
				<g id="shape243-16" v:mID="243" v:groupContext="shape">
					<title>Sheet.243</title>
					<desc>SPI</desc>
					<v:textBlock v:margins="rect(4,4,4,4)" v:tabSpace="42.5197"/>
					<v:textRect cx="20.5908" cy="349.583" width="41.19" height="52.4934" transform="rotate(-90)"/>
					<rect x="0" y="323.336" width="41.1815" height="52.4934" class="st5"/>
					<text x="-354.42" y="22.39" transform="rotate(-90)" class="st6" v:langID="1033"><v:paragraph v:horizAlign="1"/><v:tabList/>SPI</text>				</g>
			</g>
		</g>
		<g id="shape258-19" v:mID="258" v:groupContext="shape" transform="translate(375.949,0.119386) rotate(90)">
			<title>Rounded Rectangle.258</title>
			<desc>Arduino Connector on IMX6UL-EVKB</desc>
			<v:userDefs>
				<v:ud v:nameU="CTypeTopLeftSnip" v:prompt="" v:val="VT0(0):5"/>
				<v:ud v:nameU="CTypeTopRightSnip" v:prompt="" v:val="VT0(0):5"/>
				<v:ud v:nameU="CTypeBotLeftSnip" v:prompt="" v:val="VT0(0):5"/>
				<v:ud v:nameU="CTypeBotRightSnip" v:prompt="" v:val="VT0(0):5"/>
				<v:ud v:nameU="CornerLockHoriz" v:prompt="" v:val="VT0(1):5"/>
				<v:ud v:nameU="CornerLockVert" v:prompt="" v:val="VT0(1):5"/>
				<v:ud v:nameU="CornerLockDiag" v:prompt="" v:val="VT0(0):5"/>
				<v:ud v:nameU="TopLeftOffset" v:prompt="" v:val="VT0(0.15748031496063):24"/>
				<v:ud v:nameU="TopRightOffset" v:prompt="" v:val="VT0(0.15748031496063):24"/>
				<v:ud v:nameU="BotLeftOffset" v:prompt="" v:val="VT0(0.15748031496063):24"/>
				<v:ud v:nameU="BotRightOffset" v:prompt="" v:val="VT0(0.15748031496063):24"/>
				<v:ud v:nameU="visVersion" v:prompt="" v:val="VT0(15):26"/>
				<v:ud v:nameU="TopLeftOffset" v:prompt="" v:val="VT0(0.52165354330709):1"/>
				<v:ud v:nameU="TopRightOffset" v:prompt="" v:val="VT0(0.52165354330709):1"/>
				<v:ud v:nameU="BotLeftOffset" v:prompt="" v:val="VT0(0.52165354330709):1"/>
				<v:ud v:nameU="BotRightOffset" v:prompt="" v:val="VT0(0.52165354330709):1"/>
			</v:userDefs>
			<v:textBlock v:margins="rect(4,4,4,4)" v:tabSpace="42.5197"/>
			<v:textRect cx="187.795" cy="267.466" width="375.6" height="216.727"/>
			<path d="M37.56 375.83 L338.03 375.83 A37.5584 37.5584 -180 0 0 375.59 338.27 L375.59 196.66 A37.5584 37.5584 -180 0
						 0 338.03 159.1 L37.56 159.1 A37.5584 37.5584 -180 0 0 0 196.66 L0 338.27 A37.5584 37.5584 -180 0 0 37.56
						 375.83 Z" class="st7"/>
			<text x="104.7" y="270.47" class="st8" v:langID="1033"><v:paragraph v:horizAlign="1"/><v:tabList/>Arduino Connector on IMX6UL-EVKB</text>		</g>
		<g id="group359-22" transform="translate(384.047,122.009) rotate(90)" v:mID="359" v:groupContext="group">
			<title>Sheet.359</title>
			<g id="shape355-23" v:mID="355" v:groupContext="shape">
				<title>Rectangle.355</title>
				<v:userDefs>
					<v:ud v:nameU="visVersion" v:val="VT0(15):26"/>
				</v:userDefs>
				<rect x="0" y="362.79" width="111.402" height="13.0394" class="st4"/>
			</g>
			<g id="group265-25" transform="translate(2.26772,-3.11811)" v:mID="265" v:groupContext="group">
				<title>Sheet.265</title>
				<g id="shape259-26" v:mID="259" v:groupContext="shape" transform="translate(0.253626,5.68434E-014)">
					<title>Circle</title>
					<v:userDefs>
						<v:ud v:nameU="visVersion" v:val="VT0(15):26"/>
					</v:userDefs>
					<path d="M0 372.29 A3.54331 3.54331 0 0 1 7.09 372.29 A3.54331 3.54331 0 1 1 0 372.29 Z" class="st9"/>
				</g>
				<g id="shape260-28" v:mID="260" v:groupContext="shape" transform="translate(-368.743,368.743) rotate(-90)">
					<title>Sheet.260</title>
					<desc>NC</desc>
					<v:textBlock v:margins="rect(4,4,4,4)" v:tabSpace="42.5197"/>
					<v:textRect cx="14.1732" cy="372.286" width="28.35" height="7.08661"/>
					<rect x="0" y="368.743" width="28.3465" height="7.08661" class="st5"/>
					<text x="4" y="374.09" class="st6" v:langID="1033"><v:paragraph/><v:tabList/>NC</text>				</g>
			</g>
			<g id="group266-31" transform="translate(16.1873,-3.11811)" v:mID="266" v:groupContext="group">
				<title>Sheet.266</title>
				<g id="shape263-32" v:mID="263" v:groupContext="shape" transform="translate(0.253626,5.68434E-014)">
					<title>Circle.263</title>
					<v:userDefs>
						<v:ud v:nameU="visVersion" v:val="VT0(15):26"/>
					</v:userDefs>
					<path d="M0 372.29 A3.54331 3.54331 0 0 1 7.09 372.29 A3.54331 3.54331 0 1 1 0 372.29 Z" class="st9"/>
				</g>
				<g id="shape264-34" v:mID="264" v:groupContext="shape" transform="translate(-368.743,368.743) rotate(-90)">
					<title>Sheet.264</title>
					<desc>IOREF</desc>
					<v:textBlock v:margins="rect(4,4,4,4)" v:tabSpace="42.5197"/>
					<v:textRect cx="14.1732" cy="372.286" width="28.35" height="7.08661"/>
					<rect x="0" y="368.743" width="28.3465" height="7.08661" class="st5"/>
					<text x="4" y="374.09" class="st6" v:langID="1033"><v:paragraph/><v:tabList/>IOREF</text>				</g>
			</g>
			<g id="group274-37" transform="translate(30.6142,-3.11811)" v:mID="274" v:groupContext="group">
				<title>Sheet.274</title>
				<g id="shape275-38" v:mID="275" v:groupContext="shape" transform="translate(0.253626,5.68434E-014)">
					<title>Circle</title>
					<v:userDefs>
						<v:ud v:nameU="visVersion" v:val="VT0(15):26"/>
					</v:userDefs>
					<path d="M0 372.29 A3.54331 3.54331 0 0 1 7.09 372.29 A3.54331 3.54331 0 1 1 0 372.29 Z" class="st9"/>
				</g>
				<g id="shape276-40" v:mID="276" v:groupContext="shape" transform="translate(-368.743,368.743) rotate(-90)">
					<title>Sheet.276</title>
					<desc>RST</desc>
					<v:textBlock v:margins="rect(4,4,4,4)" v:tabSpace="42.5197"/>
					<v:textRect cx="14.1732" cy="372.286" width="28.35" height="7.08661"/>
					<rect x="0" y="368.743" width="28.3465" height="7.08661" class="st5"/>
					<text x="4" y="374.09" class="st6" v:langID="1033"><v:paragraph/><v:tabList/>RST</text>				</g>
			</g>
			<g id="group277-43" transform="translate(44.5338,-3.11811)" v:mID="277" v:groupContext="group">
				<title>Sheet.277</title>
				<g id="shape278-44" v:mID="278" v:groupContext="shape" transform="translate(0.253626,5.68434E-014)">
					<title>Circle.263</title>
					<v:userDefs>
						<v:ud v:nameU="visVersion" v:val="VT0(15):26"/>
					</v:userDefs>
					<path d="M0 372.29 A3.54331 3.54331 0 0 1 7.09 372.29 A3.54331 3.54331 0 1 1 0 372.29 Z" class="st9"/>
				</g>
				<g id="shape279-46" v:mID="279" v:groupContext="shape" transform="translate(-368.743,368.743) rotate(-90)">
					<title>Sheet.279</title>
					<desc>3.3V</desc>
					<v:textBlock v:margins="rect(4,4,4,4)" v:tabSpace="42.5197"/>
					<v:textRect cx="14.1732" cy="372.286" width="28.35" height="7.08661"/>
					<rect x="0" y="368.743" width="28.3465" height="7.08661" class="st5"/>
					<text x="4" y="374.09" class="st6" v:langID="1033"><v:paragraph/><v:tabList/>3.3V</text>				</g>
			</g>
			<g id="group280-49" transform="translate(58.9606,-3.11811)" v:mID="280" v:groupContext="group">
				<title>Sheet.280</title>
				<g id="shape281-50" v:mID="281" v:groupContext="shape" transform="translate(0.253626,5.68434E-014)">
					<title>Circle</title>
					<v:userDefs>
						<v:ud v:nameU="visVersion" v:val="VT0(15):26"/>
					</v:userDefs>
					<path d="M0 372.29 A3.54331 3.54331 0 0 1 7.09 372.29 A3.54331 3.54331 0 1 1 0 372.29 Z" class="st9"/>
				</g>
				<g id="shape282-52" v:mID="282" v:groupContext="shape" transform="translate(-368.743,368.743) rotate(-90)">
					<title>Sheet.282</title>
					<desc>5V</desc>
					<v:textBlock v:margins="rect(4,4,4,4)" v:tabSpace="42.5197"/>
					<v:textRect cx="14.1732" cy="372.286" width="28.35" height="7.08661"/>
					<rect x="0" y="368.743" width="28.3465" height="7.08661" class="st5"/>
					<text x="4" y="374.09" class="st6" v:langID="1033"><v:paragraph/><v:tabList/>5V</text>				</g>
			</g>
			<g id="group283-55" transform="translate(72.8802,-3.11811)" v:mID="283" v:groupContext="group">
				<title>Sheet.283</title>
				<g id="shape284-56" v:mID="284" v:groupContext="shape" transform="translate(0.253626,5.68434E-014)">
					<title>Circle.263</title>
					<v:userDefs>
						<v:ud v:nameU="visVersion" v:val="VT0(15):26"/>
					</v:userDefs>
					<path d="M0 372.29 A3.54331 3.54331 0 0 1 7.09 372.29 A3.54331 3.54331 0 1 1 0 372.29 Z" class="st9"/>
				</g>
				<g id="shape285-58" v:mID="285" v:groupContext="shape" transform="translate(-368.743,368.743) rotate(-90)">
					<title>Sheet.285</title>
					<desc>GND</desc>
					<v:textBlock v:margins="rect(4,4,4,4)" v:tabSpace="42.5197"/>
					<v:textRect cx="14.1732" cy="372.286" width="28.35" height="7.08661"/>
					<rect x="0" y="368.743" width="28.3465" height="7.08661" class="st5"/>
					<text x="4" y="374.09" class="st6" v:langID="1033"><v:paragraph/><v:tabList/>GND</text>				</g>
			</g>
			<g id="group286-61" transform="translate(87.3071,-3.11811)" v:mID="286" v:groupContext="group">
				<title>Sheet.286</title>
				<g id="shape287-62" v:mID="287" v:groupContext="shape" transform="translate(0.253626,5.68434E-014)">
					<title>Circle</title>
					<v:userDefs>
						<v:ud v:nameU="visVersion" v:val="VT0(15):26"/>
					</v:userDefs>
					<path d="M0 372.29 A3.54331 3.54331 0 0 1 7.09 372.29 A3.54331 3.54331 0 1 1 0 372.29 Z" class="st9"/>
				</g>
				<g id="shape288-64" v:mID="288" v:groupContext="shape" transform="translate(-368.743,368.743) rotate(-90)">
					<title>Sheet.288</title>
					<desc>GND</desc>
					<v:textBlock v:margins="rect(4,4,4,4)" v:tabSpace="42.5197"/>
					<v:textRect cx="14.1732" cy="372.286" width="28.35" height="7.08661"/>
					<rect x="0" y="368.743" width="28.3465" height="7.08661" class="st5"/>
					<text x="4" y="374.09" class="st6" v:langID="1033"><v:paragraph/><v:tabList/>GND</text>				</g>
			</g>
			<g id="group289-67" transform="translate(101.227,-3.11811)" v:mID="289" v:groupContext="group">
				<title>Sheet.289</title>
				<g id="shape290-68" v:mID="290" v:groupContext="shape" transform="translate(0.253626,5.68434E-014)">
					<title>Circle.263</title>
					<v:userDefs>
						<v:ud v:nameU="visVersion" v:val="VT0(15):26"/>
					</v:userDefs>
					<path d="M0 372.29 A3.54331 3.54331 0 0 1 7.09 372.29 A3.54331 3.54331 0 1 1 0 372.29 Z" class="st9"/>
				</g>
				<g id="shape291-70" v:mID="291" v:groupContext="shape" transform="translate(-368.743,368.743) rotate(-90)">
					<title>Sheet.291</title>
					<desc>VIN</desc>
					<v:textBlock v:margins="rect(4,4,4,4)" v:tabSpace="42.5197"/>
					<v:textRect cx="14.1732" cy="372.286" width="28.35" height="7.08661"/>
					<rect x="0" y="368.743" width="28.3465" height="7.08661" class="st5"/>
					<text x="4" y="374.09" class="st6" v:langID="1033"><v:paragraph/><v:tabList/>VIN</text>				</g>
			</g>
		</g>
		<g id="group360-73" transform="translate(384.181,242.138) rotate(90)" v:mID="360" v:groupContext="group">
			<title>Sheet.360</title>
			<g id="shape356-74" v:mID="356" v:groupContext="shape">
				<title>Rectangle.356</title>
				<v:userDefs>
					<v:ud v:nameU="visVersion" v:val="VT0(15):26"/>
				</v:userDefs>
				<rect x="0" y="362.79" width="83.9652" height="13.0394" class="st4"/>
			</g>
			<g id="group337-76" transform="translate(2.61086,-2.98384)" v:mID="337" v:groupContext="group">
				<title>Sheet.337</title>
				<g id="shape338-77" v:mID="338" v:groupContext="shape" transform="translate(0.253626,5.68434E-014)">
					<title>Circle</title>
					<v:userDefs>
						<v:ud v:nameU="visVersion" v:val="VT0(15):26"/>
					</v:userDefs>
					<path d="M0 372.29 A3.54331 3.54331 0 0 1 7.09 372.29 A3.54331 3.54331 0 1 1 0 372.29 Z" class="st9"/>
				</g>
				<g id="shape339-79" v:mID="339" v:groupContext="shape" transform="translate(-368.743,368.743) rotate(-90)">
					<title>Sheet.339</title>
					<desc>A0</desc>
					<v:textBlock v:margins="rect(4,4,4,4)" v:tabSpace="42.5197"/>
					<v:textRect cx="14.1732" cy="372.286" width="28.35" height="7.08661"/>
					<rect x="0" y="368.743" width="28.3465" height="7.08661" class="st5"/>
					<text x="4" y="374.09" class="st6" v:langID="1033"><v:paragraph/><v:tabList/>A0</text>				</g>
			</g>
			<g id="group340-82" transform="translate(16.5305,-2.98384)" v:mID="340" v:groupContext="group">
				<title>Sheet.340</title>
				<g id="shape341-83" v:mID="341" v:groupContext="shape" transform="translate(0.253626,5.68434E-014)">
					<title>Circle.263</title>
					<v:userDefs>
						<v:ud v:nameU="visVersion" v:val="VT0(15):26"/>
					</v:userDefs>
					<path d="M0 372.29 A3.54331 3.54331 0 0 1 7.09 372.29 A3.54331 3.54331 0 1 1 0 372.29 Z" class="st9"/>
				</g>
				<g id="shape342-85" v:mID="342" v:groupContext="shape" transform="translate(-368.743,368.743) rotate(-90)">
					<title>Sheet.342</title>
					<desc>A1</desc>
					<v:textBlock v:margins="rect(4,4,4,4)" v:tabSpace="42.5197"/>
					<v:textRect cx="14.1732" cy="372.286" width="28.35" height="7.08661"/>
					<rect x="0" y="368.743" width="28.3465" height="7.08661" class="st5"/>
					<text x="4" y="374.09" class="st6" v:langID="1033"><v:paragraph/><v:tabList/>A1</text>				</g>
			</g>
			<g id="group343-88" transform="translate(30.9573,-2.98384)" v:mID="343" v:groupContext="group">
				<title>Sheet.343</title>
				<g id="shape344-89" v:mID="344" v:groupContext="shape" transform="translate(0.253626,5.68434E-014)">
					<title>Circle</title>
					<v:userDefs>
						<v:ud v:nameU="visVersion" v:val="VT0(15):26"/>
					</v:userDefs>
					<path d="M0 372.29 A3.54331 3.54331 0 0 1 7.09 372.29 A3.54331 3.54331 0 1 1 0 372.29 Z" class="st9"/>
				</g>
				<g id="shape345-91" v:mID="345" v:groupContext="shape" transform="translate(-368.743,368.743) rotate(-90)">
					<title>Sheet.345</title>
					<desc>A2</desc>
					<v:textBlock v:margins="rect(4,4,4,4)" v:tabSpace="42.5197"/>
					<v:textRect cx="14.1732" cy="372.286" width="28.35" height="7.08661"/>
					<rect x="0" y="368.743" width="28.3465" height="7.08661" class="st5"/>
					<text x="4" y="374.09" class="st6" v:langID="1033"><v:paragraph/><v:tabList/>A2</text>				</g>
			</g>
			<g id="group346-94" transform="translate(44.8769,-2.98384)" v:mID="346" v:groupContext="group">
				<title>Sheet.346</title>
				<g id="shape347-95" v:mID="347" v:groupContext="shape" transform="translate(0.253626,5.68434E-014)">
					<title>Circle.263</title>
					<v:userDefs>
						<v:ud v:nameU="visVersion" v:val="VT0(15):26"/>
					</v:userDefs>
					<path d="M0 372.29 A3.54331 3.54331 0 0 1 7.09 372.29 A3.54331 3.54331 0 1 1 0 372.29 Z" class="st9"/>
				</g>
				<g id="shape348-97" v:mID="348" v:groupContext="shape" transform="translate(-368.743,368.743) rotate(-90)">
					<title>Sheet.348</title>
					<desc>A3</desc>
					<v:textBlock v:margins="rect(4,4,4,4)" v:tabSpace="42.5197"/>
					<v:textRect cx="14.1732" cy="372.286" width="28.35" height="7.08661"/>
					<rect x="0" y="368.743" width="28.3465" height="7.08661" class="st5"/>
					<text x="4" y="374.09" class="st6" v:langID="1033"><v:paragraph/><v:tabList/>A3</text>				</g>
			</g>
			<g id="group349-100" transform="translate(59.3038,-2.98384)" v:mID="349" v:groupContext="group">
				<title>Sheet.349</title>
				<g id="shape350-101" v:mID="350" v:groupContext="shape" transform="translate(0.253626,5.68434E-014)">
					<title>Circle</title>
					<v:userDefs>
						<v:ud v:nameU="visVersion" v:val="VT0(15):26"/>
					</v:userDefs>
					<path d="M0 372.29 A3.54331 3.54331 0 0 1 7.09 372.29 A3.54331 3.54331 0 1 1 0 372.29 Z" class="st9"/>
				</g>
				<g id="shape351-103" v:mID="351" v:groupContext="shape" transform="translate(-368.743,368.743) rotate(-90)">
					<title>Sheet.351</title>
					<desc>A4</desc>
					<v:textBlock v:margins="rect(4,4,4,4)" v:tabSpace="42.5197"/>
					<v:textRect cx="14.1732" cy="372.286" width="28.35" height="7.08661"/>
					<rect x="0" y="368.743" width="28.3465" height="7.08661" class="st5"/>
					<text x="4" y="374.09" class="st6" v:langID="1033"><v:paragraph/><v:tabList/>A4</text>				</g>
			</g>
			<g id="group352-106" transform="translate(73.2234,-2.98384)" v:mID="352" v:groupContext="group">
				<title>Sheet.352</title>
				<g id="shape353-107" v:mID="353" v:groupContext="shape" transform="translate(0.253626,5.68434E-014)">
					<title>Circle.263</title>
					<v:userDefs>
						<v:ud v:nameU="visVersion" v:val="VT0(15):26"/>
					</v:userDefs>
					<path d="M0 372.29 A3.54331 3.54331 0 0 1 7.09 372.29 A3.54331 3.54331 0 1 1 0 372.29 Z" class="st9"/>
				</g>
				<g id="shape354-109" v:mID="354" v:groupContext="shape" transform="translate(-368.743,368.743) rotate(-90)">
					<title>Sheet.354</title>
					<desc>A5</desc>
					<v:textBlock v:margins="rect(4,4,4,4)" v:tabSpace="42.5197"/>
					<v:textRect cx="14.1732" cy="372.286" width="28.35" height="7.08661"/>
					<rect x="0" y="368.743" width="28.3465" height="7.08661" class="st5"/>
					<text x="4" y="374.09" class="st6" v:langID="1033"><v:paragraph/><v:tabList/>A5</text>				</g>
			</g>
		</g>
		<g id="group361-112" transform="translate(545.196,56.8123) rotate(90)" v:mID="361" v:groupContext="group">
			<title>Sheet.361</title>
			<g id="shape358-113" v:mID="358" v:groupContext="shape" transform="translate(0,-25.7356)">
				<title>Rectangle.358</title>
				<v:userDefs>
					<v:ud v:nameU="visVersion" v:val="VT0(15):26"/>
				</v:userDefs>
				<rect x="0" y="363.297" width="138.674" height="12.5321" class="st4"/>
			</g>
			<g id="group267-115" transform="translate(2.61086,1.13687E-013)" v:mID="267" v:groupContext="group">
				<title>Sheet.267</title>
				<g id="shape261-116" v:mID="261" v:groupContext="shape" transform="translate(0.253626,-28.3465)">
					<title>Circle.261</title>
					<v:userDefs>
						<v:ud v:nameU="visVersion" v:val="VT0(15):26"/>
					</v:userDefs>
					<path d="M0 372.29 A3.54331 3.54331 0 0 1 7.09 372.29 A3.54331 3.54331 0 1 1 0 372.29 Z" class="st9"/>
				</g>
				<g id="shape262-118" v:mID="262" v:groupContext="shape" transform="translate(-368.743,375.829) rotate(-90)">
					<title>Sheet.262</title>
					<desc>D15</desc>
					<v:textBlock v:margins="rect(4,4,4,4)" v:tabSpace="42.5197"/>
					<v:textRect cx="14.1732" cy="372.286" width="28.35" height="7.08661"/>
					<rect x="0" y="368.743" width="28.3465" height="7.08661" class="st5"/>
					<text x="13.34" y="374.09" class="st6" v:langID="1033"><v:paragraph v:horizAlign="2"/><v:tabList/>D15</text>				</g>
			</g>
			<g id="group268-121" transform="translate(16.5305,1.13687E-013)" v:mID="268" v:groupContext="group">
				<title>Sheet.268</title>
				<g id="shape269-122" v:mID="269" v:groupContext="shape" transform="translate(0.253626,-28.3465)">
					<title>Circle.261</title>
					<v:userDefs>
						<v:ud v:nameU="visVersion" v:val="VT0(15):26"/>
					</v:userDefs>
					<path d="M0 372.29 A3.54331 3.54331 0 0 1 7.09 372.29 A3.54331 3.54331 0 1 1 0 372.29 Z" class="st9"/>
				</g>
				<g id="shape270-124" v:mID="270" v:groupContext="shape" transform="translate(-368.743,375.829) rotate(-90)">
					<title>Sheet.270</title>
					<desc>D14</desc>
					<v:textBlock v:margins="rect(4,4,4,4)" v:tabSpace="42.5197"/>
					<v:textRect cx="14.1732" cy="372.286" width="28.35" height="7.08661"/>
					<rect x="0" y="368.743" width="28.3465" height="7.08661" class="st5"/>
					<text x="13.34" y="374.09" class="st6" v:langID="1033"><v:paragraph v:horizAlign="2"/><v:tabList/>D14</text>				</g>
			</g>
			<g id="group271-127" transform="translate(30.9573,1.13687E-013)" v:mID="271" v:groupContext="group">
				<title>Sheet.271</title>
				<g id="shape272-128" v:mID="272" v:groupContext="shape" transform="translate(0.253626,-28.3465)">
					<title>Circle.261</title>
					<v:userDefs>
						<v:ud v:nameU="visVersion" v:val="VT0(15):26"/>
					</v:userDefs>
					<path d="M0 372.29 A3.54331 3.54331 0 0 1 7.09 372.29 A3.54331 3.54331 0 1 1 0 372.29 Z" class="st9"/>
				</g>
				<g id="shape273-130" v:mID="273" v:groupContext="shape" transform="translate(-368.743,375.829) rotate(-90)">
					<title>Sheet.273</title>
					<desc>AREF</desc>
					<v:textBlock v:margins="rect(4,4,4,4)" v:tabSpace="42.5197"/>
					<v:textRect cx="14.1732" cy="372.286" width="28.35" height="7.08661"/>
					<rect x="0" y="368.743" width="28.3465" height="7.08661" class="st5"/>
					<text x="8.34" y="374.09" class="st6" v:langID="1033"><v:paragraph v:horizAlign="2"/><v:tabList/>AREF</text>				</g>
			</g>
			<g id="group292-133" transform="translate(45.1305,1.13687E-013)" v:mID="292" v:groupContext="group">
				<title>Sheet.292</title>
				<g id="shape293-134" v:mID="293" v:groupContext="shape" transform="translate(0.253626,-28.3465)">
					<title>Circle.261</title>
					<v:userDefs>
						<v:ud v:nameU="visVersion" v:val="VT0(15):26"/>
					</v:userDefs>
					<path d="M0 372.29 A3.54331 3.54331 0 0 1 7.09 372.29 A3.54331 3.54331 0 1 1 0 372.29 Z" class="st9"/>
				</g>
				<g id="shape294-136" v:mID="294" v:groupContext="shape" transform="translate(-368.743,375.829) rotate(-90)">
					<title>Sheet.294</title>
					<desc>GND</desc>
					<v:textBlock v:margins="rect(4,4,4,4)" v:tabSpace="42.5197"/>
					<v:textRect cx="14.1732" cy="372.286" width="28.35" height="7.08661"/>
					<rect x="0" y="368.743" width="28.3465" height="7.08661" class="st5"/>
					<text x="11.01" y="374.09" class="st6" v:langID="1033"><v:paragraph v:horizAlign="2"/><v:tabList/>GND</text>				</g>
			</g>
			<g id="group295-139" transform="translate(59.0501,1.13687E-013)" v:mID="295" v:groupContext="group">
				<title>Sheet.295</title>
				<g id="shape296-140" v:mID="296" v:groupContext="shape" transform="translate(0.253626,-28.3465)">
					<title>Circle.261</title>
					<v:userDefs>
						<v:ud v:nameU="visVersion" v:val="VT0(15):26"/>
					</v:userDefs>
					<path d="M0 372.29 A3.54331 3.54331 0 0 1 7.09 372.29 A3.54331 3.54331 0 1 1 0 372.29 Z" class="st9"/>
				</g>
				<g id="shape297-142" v:mID="297" v:groupContext="shape" transform="translate(-368.743,375.829) rotate(-90)">
					<title>Sheet.297</title>
					<desc>D13</desc>
					<v:textBlock v:margins="rect(4,4,4,4)" v:tabSpace="42.5197"/>
					<v:textRect cx="14.1732" cy="372.286" width="28.35" height="7.08661"/>
					<rect x="0" y="368.743" width="28.3465" height="7.08661" class="st5"/>
					<text x="13.34" y="374.09" class="st6" v:langID="1033"><v:paragraph v:horizAlign="2"/><v:tabList/>D13</text>				</g>
			</g>
			<g id="group298-145" transform="translate(73.477,1.13687E-013)" v:mID="298" v:groupContext="group">
				<title>Sheet.298</title>
				<g id="shape299-146" v:mID="299" v:groupContext="shape" transform="translate(0.253626,-28.3465)">
					<title>Circle.261</title>
					<v:userDefs>
						<v:ud v:nameU="visVersion" v:val="VT0(15):26"/>
					</v:userDefs>
					<path d="M0 372.29 A3.54331 3.54331 0 0 1 7.09 372.29 A3.54331 3.54331 0 1 1 0 372.29 Z" class="st9"/>
				</g>
				<g id="shape300-148" v:mID="300" v:groupContext="shape" transform="translate(-368.743,375.829) rotate(-90)">
					<title>Sheet.300</title>
					<desc>D12</desc>
					<v:textBlock v:margins="rect(4,4,4,4)" v:tabSpace="42.5197"/>
					<v:textRect cx="14.1732" cy="372.286" width="28.35" height="7.08661"/>
					<rect x="0" y="368.743" width="28.3465" height="7.08661" class="st5"/>
					<text x="13.34" y="374.09" class="st6" v:langID="1033"><v:paragraph v:horizAlign="2"/><v:tabList/>D12</text>				</g>
			</g>
			<g id="group301-151" transform="translate(87.3966,1.13687E-013)" v:mID="301" v:groupContext="group">
				<title>Sheet.301</title>
				<g id="shape302-152" v:mID="302" v:groupContext="shape" transform="translate(0.253626,-28.3465)">
					<title>Circle.261</title>
					<v:userDefs>
						<v:ud v:nameU="visVersion" v:val="VT0(15):26"/>
					</v:userDefs>
					<path d="M0 372.29 A3.54331 3.54331 0 0 1 7.09 372.29 A3.54331 3.54331 0 1 1 0 372.29 Z" class="st9"/>
				</g>
				<g id="shape303-154" v:mID="303" v:groupContext="shape" transform="translate(-368.743,375.829) rotate(-90)">
					<title>Sheet.303</title>
					<desc>D11</desc>
					<v:textBlock v:margins="rect(4,4,4,4)" v:tabSpace="42.5197"/>
					<v:textRect cx="14.1732" cy="372.286" width="28.35" height="7.08661"/>
					<rect x="0" y="368.743" width="28.3465" height="7.08661" class="st5"/>
					<text x="13.34" y="374.09" class="st6" v:langID="1033"><v:paragraph v:horizAlign="2"/><v:tabList/>D11</text>				</g>
			</g>
			<g id="group304-157" transform="translate(101.57,1.13687E-013)" v:mID="304" v:groupContext="group">
				<title>Sheet.304</title>
				<g id="shape305-158" v:mID="305" v:groupContext="shape" transform="translate(0.253626,-28.3465)">
					<title>Circle.261</title>
					<v:userDefs>
						<v:ud v:nameU="visVersion" v:val="VT0(15):26"/>
					</v:userDefs>
					<path d="M0 372.29 A3.54331 3.54331 0 0 1 7.09 372.29 A3.54331 3.54331 0 1 1 0 372.29 Z" class="st9"/>
				</g>
				<g id="shape306-160" v:mID="306" v:groupContext="shape" transform="translate(-368.743,375.829) rotate(-90)">
					<title>Sheet.306</title>
					<desc>D10</desc>
					<v:textBlock v:margins="rect(4,4,4,4)" v:tabSpace="42.5197"/>
					<v:textRect cx="14.1732" cy="372.286" width="28.35" height="7.08661"/>
					<rect x="0" y="368.743" width="28.3465" height="7.08661" class="st5"/>
					<text x="13.34" y="374.09" class="st6" v:langID="1033"><v:paragraph v:horizAlign="2"/><v:tabList/>D10</text>				</g>
			</g>
			<g id="group307-163" transform="translate(115.489,1.13687E-013)" v:mID="307" v:groupContext="group">
				<title>Sheet.307</title>
				<g id="shape308-164" v:mID="308" v:groupContext="shape" transform="translate(0.253626,-28.3465)">
					<title>Circle.261</title>
					<v:userDefs>
						<v:ud v:nameU="visVersion" v:val="VT0(15):26"/>
					</v:userDefs>
					<path d="M0 372.29 A3.54331 3.54331 0 0 1 7.09 372.29 A3.54331 3.54331 0 1 1 0 372.29 Z" class="st9"/>
				</g>
				<g id="shape309-166" v:mID="309" v:groupContext="shape" transform="translate(-368.743,375.829) rotate(-90)">
					<title>Sheet.309</title>
					<desc>D9</desc>
					<v:textBlock v:margins="rect(4,4,4,4)" v:tabSpace="42.5197"/>
					<v:textRect cx="14.1732" cy="372.286" width="28.35" height="7.08661"/>
					<rect x="0" y="368.743" width="28.3465" height="7.08661" class="st5"/>
					<text x="16.68" y="374.09" class="st6" v:langID="1033"><v:paragraph v:horizAlign="2"/><v:tabList/>D9</text>				</g>
			</g>
			<g id="group310-169" transform="translate(129.916,1.13687E-013)" v:mID="310" v:groupContext="group">
				<title>Sheet.310</title>
				<g id="shape311-170" v:mID="311" v:groupContext="shape" transform="translate(0.253626,-28.3465)">
					<title>Circle.261</title>
					<v:userDefs>
						<v:ud v:nameU="visVersion" v:val="VT0(15):26"/>
					</v:userDefs>
					<path d="M0 372.29 A3.54331 3.54331 0 0 1 7.09 372.29 A3.54331 3.54331 0 1 1 0 372.29 Z" class="st9"/>
				</g>
				<g id="shape312-172" v:mID="312" v:groupContext="shape" transform="translate(-368.743,375.829) rotate(-90)">
					<title>Sheet.312</title>
					<desc>D8</desc>
					<v:textBlock v:margins="rect(4,4,4,4)" v:tabSpace="42.5197"/>
					<v:textRect cx="14.1732" cy="372.286" width="28.35" height="7.08661"/>
					<rect x="0" y="368.743" width="28.3465" height="7.08661" class="st5"/>
					<text x="16.68" y="374.09" class="st6" v:langID="1033"><v:paragraph v:horizAlign="2"/><v:tabList/>D8</text>				</g>
			</g>
		</g>
		<g id="group362-175" transform="translate(545.196,206.713) rotate(90)" v:mID="362" v:groupContext="group">
			<title>Sheet.362</title>
			<g id="shape357-176" v:mID="357" v:groupContext="shape" transform="translate(0,-25.7953)">
				<title>Rectangle.357</title>
				<v:userDefs>
					<v:ud v:nameU="visVersion" v:val="VT0(15):26"/>
				</v:userDefs>
				<rect x="0" y="363.357" width="110.581" height="12.4724" class="st4"/>
			</g>
			<g id="group313-178" transform="translate(1.41732,5.68434E-014)" v:mID="313" v:groupContext="group">
				<title>Sheet.313</title>
				<g id="shape314-179" v:mID="314" v:groupContext="shape" transform="translate(0.253626,-28.3465)">
					<title>Circle.261</title>
					<v:userDefs>
						<v:ud v:nameU="visVersion" v:val="VT0(15):26"/>
					</v:userDefs>
					<path d="M0 372.29 A3.54331 3.54331 0 0 1 7.09 372.29 A3.54331 3.54331 0 1 1 0 372.29 Z" class="st9"/>
				</g>
				<g id="shape315-181" v:mID="315" v:groupContext="shape" transform="translate(-368.743,375.829) rotate(-90)">
					<title>Sheet.315</title>
					<desc>D7</desc>
					<v:textBlock v:margins="rect(4,4,4,4)" v:tabSpace="42.5197"/>
					<v:textRect cx="14.1732" cy="372.286" width="28.35" height="7.08661"/>
					<rect x="0" y="368.743" width="28.3465" height="7.08661" class="st5"/>
					<text x="16.68" y="374.09" class="st6" v:langID="1033"><v:paragraph v:horizAlign="2"/><v:tabList/>D7</text>				</g>
			</g>
			<g id="group316-184" transform="translate(15.5906,5.68434E-014)" v:mID="316" v:groupContext="group">
				<title>Sheet.316</title>
				<g id="shape317-185" v:mID="317" v:groupContext="shape" transform="translate(0.253626,-28.3465)">
					<title>Circle.261</title>
					<v:userDefs>
						<v:ud v:nameU="visVersion" v:val="VT0(15):26"/>
					</v:userDefs>
					<path d="M0 372.29 A3.54331 3.54331 0 0 1 7.09 372.29 A3.54331 3.54331 0 1 1 0 372.29 Z" class="st9"/>
				</g>
				<g id="shape318-187" v:mID="318" v:groupContext="shape" transform="translate(-368.743,375.829) rotate(-90)">
					<title>Sheet.318</title>
					<desc>D6</desc>
					<v:textBlock v:margins="rect(4,4,4,4)" v:tabSpace="42.5197"/>
					<v:textRect cx="14.1732" cy="372.286" width="28.35" height="7.08661"/>
					<rect x="0" y="368.743" width="28.3465" height="7.08661" class="st5"/>
					<text x="16.68" y="374.09" class="st6" v:langID="1033"><v:paragraph v:horizAlign="2"/><v:tabList/>D6</text>				</g>
			</g>
			<g id="group319-190" transform="translate(29.5102,5.68434E-014)" v:mID="319" v:groupContext="group">
				<title>Sheet.319</title>
				<g id="shape320-191" v:mID="320" v:groupContext="shape" transform="translate(0.253626,-28.3465)">
					<title>Circle.261</title>
					<v:userDefs>
						<v:ud v:nameU="visVersion" v:val="VT0(15):26"/>
					</v:userDefs>
					<path d="M0 372.29 A3.54331 3.54331 0 0 1 7.09 372.29 A3.54331 3.54331 0 1 1 0 372.29 Z" class="st9"/>
				</g>
				<g id="shape321-193" v:mID="321" v:groupContext="shape" transform="translate(-368.743,375.829) rotate(-90)">
					<title>Sheet.321</title>
					<desc>D5</desc>
					<v:textBlock v:margins="rect(4,4,4,4)" v:tabSpace="42.5197"/>
					<v:textRect cx="14.1732" cy="372.286" width="28.35" height="7.08661"/>
					<rect x="0" y="368.743" width="28.3465" height="7.08661" class="st5"/>
					<text x="16.68" y="374.09" class="st6" v:langID="1033"><v:paragraph v:horizAlign="2"/><v:tabList/>D5</text>				</g>
			</g>
			<g id="group322-196" transform="translate(43.937,5.68434E-014)" v:mID="322" v:groupContext="group">
				<title>Sheet.322</title>
				<g id="shape323-197" v:mID="323" v:groupContext="shape" transform="translate(0.253626,-28.3465)">
					<title>Circle.261</title>
					<v:userDefs>
						<v:ud v:nameU="visVersion" v:val="VT0(15):26"/>
					</v:userDefs>
					<path d="M0 372.29 A3.54331 3.54331 0 0 1 7.09 372.29 A3.54331 3.54331 0 1 1 0 372.29 Z" class="st9"/>
				</g>
				<g id="shape324-199" v:mID="324" v:groupContext="shape" transform="translate(-368.743,375.829) rotate(-90)">
					<title>Sheet.324</title>
					<desc>D4</desc>
					<v:textBlock v:margins="rect(4,4,4,4)" v:tabSpace="42.5197"/>
					<v:textRect cx="14.1732" cy="372.286" width="28.35" height="7.08661"/>
					<rect x="0" y="368.743" width="28.3465" height="7.08661" class="st5"/>
					<text x="16.68" y="374.09" class="st6" v:langID="1033"><v:paragraph v:horizAlign="2"/><v:tabList/>D4</text>				</g>
			</g>
			<g id="group325-202" transform="translate(57.8566,5.68434E-014)" v:mID="325" v:groupContext="group">
				<title>Sheet.325</title>
				<g id="shape326-203" v:mID="326" v:groupContext="shape" transform="translate(0.253626,-28.3465)">
					<title>Circle.261</title>
					<v:userDefs>
						<v:ud v:nameU="visVersion" v:val="VT0(15):26"/>
					</v:userDefs>
					<path d="M0 372.29 A3.54331 3.54331 0 0 1 7.09 372.29 A3.54331 3.54331 0 1 1 0 372.29 Z" class="st9"/>
				</g>
				<g id="shape327-205" v:mID="327" v:groupContext="shape" transform="translate(-368.743,375.829) rotate(-90)">
					<title>Sheet.327</title>
					<desc>D3</desc>
					<v:textBlock v:margins="rect(4,4,4,4)" v:tabSpace="42.5197"/>
					<v:textRect cx="14.1732" cy="372.286" width="28.35" height="7.08661"/>
					<rect x="0" y="368.743" width="28.3465" height="7.08661" class="st5"/>
					<text x="16.68" y="374.09" class="st6" v:langID="1033"><v:paragraph v:horizAlign="2"/><v:tabList/>D3</text>				</g>
			</g>
			<g id="group328-208" transform="translate(72.0298,5.68434E-014)" v:mID="328" v:groupContext="group">
				<title>Sheet.328</title>
				<g id="shape329-209" v:mID="329" v:groupContext="shape" transform="translate(0.253626,-28.3465)">
					<title>Circle.261</title>
					<v:userDefs>
						<v:ud v:nameU="visVersion" v:val="VT0(15):26"/>
					</v:userDefs>
					<path d="M0 372.29 A3.54331 3.54331 0 0 1 7.09 372.29 A3.54331 3.54331 0 1 1 0 372.29 Z" class="st9"/>
				</g>
				<g id="shape330-211" v:mID="330" v:groupContext="shape" transform="translate(-368.743,375.829) rotate(-90)">
					<title>Sheet.330</title>
					<desc>D2</desc>
					<v:textBlock v:margins="rect(4,4,4,4)" v:tabSpace="42.5197"/>
					<v:textRect cx="14.1732" cy="372.286" width="28.35" height="7.08661"/>
					<rect x="0" y="368.743" width="28.3465" height="7.08661" class="st5"/>
					<text x="16.68" y="374.09" class="st6" v:langID="1033"><v:paragraph v:horizAlign="2"/><v:tabList/>D2</text>				</g>
			</g>
			<g id="group331-214" transform="translate(85.9494,5.68434E-014)" v:mID="331" v:groupContext="group">
				<title>Sheet.331</title>
				<g id="shape332-215" v:mID="332" v:groupContext="shape" transform="translate(0.253626,-28.3465)">
					<title>Circle.261</title>
					<v:userDefs>
						<v:ud v:nameU="visVersion" v:val="VT0(15):26"/>
					</v:userDefs>
					<path d="M0 372.29 A3.54331 3.54331 0 0 1 7.09 372.29 A3.54331 3.54331 0 1 1 0 372.29 Z" class="st9"/>
				</g>
				<g id="shape333-217" v:mID="333" v:groupContext="shape" transform="translate(-368.743,375.829) rotate(-90)">
					<title>Sheet.333</title>
					<desc>D1</desc>
					<v:textBlock v:margins="rect(4,4,4,4)" v:tabSpace="42.5197"/>
					<v:textRect cx="14.1732" cy="372.286" width="28.35" height="7.08661"/>
					<rect x="0" y="368.743" width="28.3465" height="7.08661" class="st5"/>
					<text x="16.68" y="374.09" class="st6" v:langID="1033"><v:paragraph v:horizAlign="2"/><v:tabList/>D1</text>				</g>
			</g>
			<g id="group334-220" transform="translate(100.376,5.68434E-014)" v:mID="334" v:groupContext="group">
				<title>Sheet.334</title>
				<g id="shape335-221" v:mID="335" v:groupContext="shape" transform="translate(0.253626,-28.3465)">
					<title>Circle.261</title>
					<v:userDefs>
						<v:ud v:nameU="visVersion" v:val="VT0(15):26"/>
					</v:userDefs>
					<path d="M0 372.29 A3.54331 3.54331 0 0 1 7.09 372.29 A3.54331 3.54331 0 1 1 0 372.29 Z" class="st9"/>
				</g>
				<g id="shape336-223" v:mID="336" v:groupContext="shape" transform="translate(-368.743,375.829) rotate(-90)">
					<title>Sheet.336</title>
					<desc>D0</desc>
					<v:textBlock v:margins="rect(4,4,4,4)" v:tabSpace="42.5197"/>
					<v:textRect cx="14.1732" cy="372.286" width="28.35" height="7.08661"/>
					<rect x="0" y="368.743" width="28.3465" height="7.08661" class="st5"/>
					<text x="16.68" y="374.09" class="st6" v:langID="1033"><v:paragraph v:horizAlign="2"/><v:tabList/>D0</text>				</g>
			</g>
		</g>
		<g id="shape364-226" v:mID="364" v:groupContext="shape" transform="translate(201.257,-312.609)">
			<title>Sheet.364</title>
			<path d="M0 375.83 L53.98 375.83" class="st10"/>
		</g>
		<g id="shape365-229" v:mID="365" v:groupContext="shape" transform="translate(201.257,-298.69)">
			<title>Sheet.365</title>
			<path d="M0 375.83 L53.98 375.83" class="st11"/>
		</g>
		<g id="shape366-232" v:mID="366" v:groupContext="shape" transform="translate(201.257,-284.263)">
			<title>Sheet.366</title>
			<path d="M0 375.83 L53.98 375.83" class="st12"/>
		</g>
		<g id="shape367-235" v:mID="367" v:groupContext="shape" transform="translate(201.257,-270.09)">
			<title>Sheet.367</title>
			<path d="M0 375.83 L53.98 375.83" class="st13"/>
		</g>
		<g id="shape368-238" v:mID="368" v:groupContext="shape" transform="translate(281.154,-49.7257)">
			<title>Sheet.368</title>
			<path d="M0 375.83 L53.98 375.83" class="st10"/>
		</g>
		<g id="shape369-241" v:mID="369" v:groupContext="shape" transform="translate(281.154,-92.2454)">
			<title>Sheet.369</title>
			<path d="M0 375.83 L53.98 375.83" class="st11"/>
		</g>
		<g id="shape370-244" v:mID="370" v:groupContext="shape" transform="translate(281.154,-63.8989)">
			<title>Sheet.370</title>
			<path d="M0 375.83 L53.98 375.83" class="st13"/>
		</g>
		<g id="shape371-247" v:mID="371" v:groupContext="shape" transform="translate(281.154,-78.0721)">
			<title>Sheet.371</title>
			<path d="M0 375.83 L53.98 375.83" class="st12"/>
		</g>
		<g id="shape372-250" v:mID="372" v:groupContext="shape" transform="translate(269.411,-304.844)">
			<title>Sheet.372</title>
			<desc>I2C2_SCL</desc>
			<v:textBlock v:margins="rect(4,4,4,4)" v:tabSpace="42.5197"/>
			<v:textRect cx="28.3465" cy="368.743" width="56.7" height="14.1732"/>
			<rect x="0" y="361.656" width="56.6929" height="14.1732" class="st5"/>
			<text x="4" y="371.14" class="st14" v:langID="1033"><v:paragraph/><v:tabList/>I2C2_SCL</text>		</g>
		<g id="shape373-253" v:mID="373" v:groupContext="shape" transform="translate(269.411,-290.671)">
			<title>Sheet.373</title>
			<desc>I2C2_SDA</desc>
			<v:textBlock v:margins="rect(4,4,4,4)" v:tabSpace="42.5197"/>
			<v:textRect cx="28.3465" cy="368.743" width="56.7" height="14.1732"/>
			<rect x="0" y="361.656" width="56.6929" height="14.1732" class="st5"/>
			<text x="4" y="371.14" class="st14" v:langID="1033"><v:paragraph/><v:tabList/>I2C2_SDA</text>		</g>
		<g id="shape374-256" v:mID="374" v:groupContext="shape" transform="translate(269.411,-276.497)">
			<title>Sheet.374</title>
			<desc>VPERI_3V3</desc>
			<v:textBlock v:margins="rect(4,4,4,4)" v:tabSpace="42.5197"/>
			<v:textRect cx="28.3465" cy="368.743" width="56.7" height="14.1732"/>
			<rect x="0" y="361.656" width="56.6929" height="14.1732" class="st5"/>
			<text x="4" y="371.14" class="st14" v:langID="1033"><v:paragraph/><v:tabList/>VPERI_3V3</text>		</g>
		<g id="shape500-259" v:mID="500" v:groupContext="shape" transform="translate(269.411,-262.324)">
			<title>Sheet.500</title>
			<desc>GND</desc>
			<v:textBlock v:margins="rect(4,4,4,4)" v:tabSpace="42.5197"/>
			<v:textRect cx="28.3465" cy="368.743" width="56.7" height="14.1732"/>
			<rect x="0" y="361.656" width="56.6929" height="14.1732" class="st5"/>
			<text x="4" y="371.14" class="st14" v:langID="1033"><v:paragraph/><v:tabList/>GND</text>		</g>
		<g id="shape501-262" v:mID="501" v:groupContext="shape" transform="translate(221.67,-85.5317)">
			<title>Sheet.501</title>
			<desc>SDA</desc>
			<v:textBlock v:margins="rect(4,4,4,4)" v:tabSpace="42.5197"/>
			<v:textRect cx="28.3465" cy="368.743" width="56.7" height="14.1732"/>
			<rect x="0" y="361.656" width="56.6929" height="14.1732" class="st5"/>
			<text x="35.8" y="371.14" class="st14" v:langID="1033"><v:paragraph v:horizAlign="2"/><v:tabList/>SDA</text>		</g>
		<g id="shape502-265" v:mID="502" v:groupContext="shape" transform="translate(221.67,-71.3585)">
			<title>Sheet.502</title>
			<desc>VCC</desc>
			<v:textBlock v:margins="rect(4,4,4,4)" v:tabSpace="42.5197"/>
			<v:textRect cx="28.3465" cy="368.743" width="56.7" height="14.1732"/>
			<rect x="0" y="361.656" width="56.6929" height="14.1732" class="st5"/>
			<text x="35.8" y="371.14" class="st14" v:langID="1033"><v:paragraph v:horizAlign="2"/><v:tabList/>VCC</text>		</g>
		<g id="shape503-268" v:mID="503" v:groupContext="shape" transform="translate(221.67,-57.1853)">
			<title>Sheet.503</title>
			<desc>GND</desc>
			<v:textBlock v:margins="rect(4,4,4,4)" v:tabSpace="42.5197"/>
			<v:textRect cx="28.3465" cy="368.743" width="56.7" height="14.1732"/>
			<rect x="0" y="361.656" width="56.6929" height="14.1732" class="st5"/>
			<text x="34.92" y="371.14" class="st14" v:langID="1033"><v:paragraph v:horizAlign="2"/><v:tabList/>GND</text>		</g>
		<g id="shape504-271" v:mID="504" v:groupContext="shape" transform="translate(221.67,-43.0121)">
			<title>Sheet.504</title>
			<desc>SCL</desc>
			<v:textBlock v:margins="rect(4,4,4,4)" v:tabSpace="42.5197"/>
			<v:textRect cx="28.3465" cy="368.743" width="56.7" height="14.1732"/>
			<rect x="0" y="361.656" width="56.6929" height="14.1732" class="st5"/>
			<text x="36.69" y="371.14" class="st14" v:langID="1033"><v:paragraph v:horizAlign="2"/><v:tabList/>SCL</text>		</g>
	</g>
</svg>
